Coordinates
version=1
nRows=14
nColumns=36
inDegrees=yes

Units are S.I. units (second, meters, Newtons, ...)
If the header above contains a line with 'inDegrees', this indicates whether rotational values are in degrees (yes) or radians (no).

endheader
time	pelvis_tilt	pelvis_list	pelvis_rotation	pelvis_tx	pelvis_ty	pelvis_tz	hip_flexion_r	hip_adduction_r	hip_rotation_r	knee_angle_r	knee_angle_r_beta	ankle_angle_r	subtalar_angle_r	mtp_angle_r	hip_flexion_l	hip_adduction_l	hip_rotation_l	knee_angle_l	knee_angle_l_beta	ankle_angle_l	subtalar_angle_l	mtp_angle_l	lumbar_extension	lumbar_bending	lumbar_rotation	arm_flex_r	arm_add_r	arm_rot_r	elbow_flex_r	pro_sup_r	arm_flex_l	arm_add_l	arm_rot_l	elbow_flex_l	pro_sup_l
      5.92916670	    -10.81518073	      1.14306083	     -3.80544826	      0.39532323	      0.90418230	     -0.02907665	      9.52269759	     -3.06735351	     -4.72767904	      1.27847421	      0.02231358	      1.50863930	     -7.72828736	     -7.49999987	      8.18732382	     -4.32516766	    -12.41863399	      1.04688371	      0.01827157	      2.95933820	      3.76982037	     -7.49999987	     -0.30437238	     -0.89484047	     -0.69637406	    -14.12598390	    -12.67256946	    -15.23439379	     57.97693611	     70.67514426	    -13.01006896	    -14.63491977	     -7.50662661	     57.24653268	     73.30893377
      5.93333330	    -10.82211191	      1.15191736	     -3.83820285	      0.39778177	      0.90740739	     -0.03328252	      9.50041712	     -3.16656610	     -4.77746908	      1.29591333	      0.02261795	      1.48918585	     -7.72164217	     -7.49999987	      8.16420833	     -4.26689401	    -12.44943669	      1.06201908	      0.01853573	      2.95950649	      3.76363237	     -7.49999987	     -0.27662423	     -0.84803254	     -0.67745927	    -14.17720336	    -12.73915699	    -15.25057188	     57.95486812	     70.67153832	    -13.15550543	    -14.42011276	     -7.43476254	     57.22413246	     73.31360758
      5.93750000	    -10.84002625	      1.17229881	     -3.84100842	      0.39641484	      0.91019044	     -0.03198864	      9.49520485	     -3.24923106	     -4.80082584	      1.27758930	      0.02229814	      1.45590411	     -7.69494407	     -7.49999987	      8.15437742	     -4.19575395	    -12.50805221	      1.05929900	      0.01848826	      2.95774757	      3.73913862	     -7.49999987	     -0.24722830	     -0.77975147	     -0.66896609	    -14.19907968	    -12.76078212	    -15.24866284	     57.93158241	     70.66989227	    -13.22160832	    -14.27507436	     -7.38430651	     57.20762287	     73.31685006
      5.94166670	    -10.89957576	      1.19426296	     -3.87239456	      0.39808522	      0.90943384	     -0.03285546	      9.50078176	     -3.32306451	     -4.95051024	      1.23155377	      0.02149467	      1.43963029	     -7.28532932	     -7.49999987	      8.13314625	     -4.12408562	    -12.65647211	      1.00794720	      0.01759200	      2.92415355	      3.95134738	     -7.49999987	     -0.02070443	     -0.73879708	     -0.70022568	    -14.14440061	    -12.98712713	    -14.47693328	     57.51367927	     68.32914691	    -13.31990191	    -14.17153252	     -6.78035611	     56.90786797	     70.49489148
      5.94583330	    -10.90498001	      1.19000901	     -3.90085811	      0.39759279	      0.90575848	     -0.03106018	      9.48433227	     -3.32412177	     -4.94792177	      1.22752908	      0.02142442	      1.46070919	     -7.26307745	     -7.49999987	      8.10477875	     -4.09983954	    -12.67487982	      1.01880428	      0.01778149	      2.98155357	      3.93377311	     -7.49999987	      0.02723778	     -0.70819311	     -0.70909402	    -14.20502944	    -12.93768737	    -14.47434119	     57.51524193	     68.35021004	    -13.39423222	    -14.11654159	     -6.76483476	     56.90565192	     70.52388161
      5.95000000	    -10.90893398	      1.17020404	     -3.92546435	      0.39532480	      0.90611761	     -0.02778344	      9.46545640	     -3.24927432	     -4.89003811	      1.18846521	      0.02074263	      1.46352166	     -7.21467609	     -7.49999987	      8.08716802	     -4.14597396	    -12.63122259	      0.98950961	      0.01727020	      2.97359258	      3.98275392	     -7.49999987	      0.09231597	     -0.68626377	     -0.65455370	    -14.14580242	    -12.78269475	    -14.42126053	     57.54577162	     68.37055825	    -13.38196626	    -14.16834496	     -6.78278628	     56.90840881	     70.54364404
      5.95416670	    -10.88774140	      1.13720669	     -3.98549461	      0.39512478	      0.90524068	     -0.02752366	      9.41720937	     -3.13203062	     -4.69428161	      1.11318025	      0.01942866	      1.55255791	     -7.14981446	     -7.49999987	      8.04556713	     -4.24639917	    -12.74949640	      0.94975885	      0.01657642	      3.05121612	      4.31284641	     -7.49999987	      0.10548163	     -0.70210252	     -0.55826881	    -14.18382452	    -12.53536572	    -14.73814269	     57.57788925	     70.65095843	    -13.36254768	    -14.20861540	     -7.07286749	     56.98265039	     73.06481401
      5.95833330	    -10.89242161	      1.11982447	     -3.98766090	      0.39517772	      0.90581204	     -0.02788845	      9.41873064	     -3.05842382	     -4.54011587	      1.08560418	      0.01894737	      1.54373481	     -7.26042643	     -7.49999987	      8.07452359	     -4.32285519	    -12.76683938	      0.95941795	      0.01674500	      3.06917626	      4.41527289	     -7.49999987	      0.16885202	     -0.70154659	     -0.50680438	    -14.13054260	    -12.40417493	    -14.58517558	     57.52178368	     70.50945095	    -13.28185057	    -14.31915540	     -6.82351522	     56.89546724	     72.78344428
      5.96250000	    -10.87617327	      1.11573318	     -3.97196143	      0.39522281	      0.90660213	     -0.02853884	      9.39187684	     -3.02759801	     -4.49269542	      1.06766903	      0.01863434	      1.61456394	     -7.17266252	     -7.49999987	      8.08456526	     -4.37861759	    -12.73836009	      0.96239522	      0.01679697	      3.03165062	      4.50159252	     -7.49999987	      0.18016888	     -0.70474950	     -0.50373374	    -14.01477119	    -12.42337741	    -14.24513036	     57.35286099	     70.49966079	    -13.27797698	    -14.32246060	     -6.79401379	     56.96692169	     72.82558882
      5.96666670	    -10.85182487	      1.12065289	     -3.99718493	      0.39650175	      0.90712123	     -0.02804504	      9.35402948	     -3.01375835	     -4.29556133	      1.04360331	      0.01821431	      1.54600939	     -7.30054122	     -7.49999987	      8.05287089	     -4.42920007	    -12.93708266	      0.97767311	      0.01706361	      3.05178725	      4.71504969	     -7.49999987	      0.23704659	     -0.73232026	     -0.47461732	    -14.01287672	    -12.45588455	    -13.58621955	     57.26251400	     68.52683649	    -13.26985444	    -14.52055445	     -6.16096309	     57.00049866	     70.46968078
      5.97083330	    -10.88685471	      1.15430859	     -3.98689299	      0.39529606	      0.91024213	     -0.02957117	      9.39561623	     -3.07859276	     -4.33382293	      1.02054173	      0.01781181	      1.54528579	     -7.14169298	     -7.49999987	      8.11645584	     -4.41229571	    -13.03368273	      0.96950628	      0.01692108	      2.95734642	      4.74530850	     -7.49999987	      0.32296993	     -0.73311562	     -0.33788447	    -14.16378905	    -12.24900817	    -14.14743708	     57.26177937	     70.25321411	    -13.03096963	    -14.47203405	     -6.02055653	     56.59786784	     72.39727829
      5.97500000	    -10.85468248	      1.17754806	     -3.95718603	      0.39484779	      0.90949200	     -0.02962799	      9.37200012	     -3.14345533	     -4.34873082	      0.97485575	      0.01701444	      1.58871308	     -6.98893653	     -7.49999987	      8.09803149	     -4.38402818	    -13.03106058	      0.94606868	      0.01651201	      2.77981105	      4.59810356	     -7.49999987	      0.30226403	     -0.76616419	     -0.47219732	    -14.08291889	    -12.26830088	    -13.83221230	     57.14752127	     70.45715456	    -13.03839178	    -14.51209776	     -5.92826217	     56.57952669	     72.60699427
      5.97916670	    -10.86641983	      1.21983853	     -3.97794695	      0.39563279	      0.90854856	     -0.02983895	      9.39866028	     -3.21662898	     -4.30532508	      0.95588613	      0.01668336	      1.48363714	     -7.00055926	     -7.49999987	      8.10036960	     -4.33770259	    -13.16868778	      0.91407509	      0.01595362	      2.71421369	      4.64880914	     -7.49999987	      0.35369759	     -0.82381712	     -0.49452446	    -14.08757804	    -12.32469966	    -13.34151688	     57.06361370	     68.86863086	    -13.00035849	    -14.67455523	     -5.37548405	     56.49778337	     70.74650291
      5.98333330	    -10.79120101	      1.22753555	     -3.98064967	      0.39475175	      0.90876304	     -0.03009298	      9.33359649	     -3.26831041	     -4.43067874	      0.94418377	      0.01647912	      1.47714722	     -6.88508808	     -7.49999987	      8.02497391	     -4.30641774	    -13.21548688	      0.90314978	      0.01576294	      2.65392248	      4.70293646	     -7.49999987	      0.25430108	     -0.81443452	     -0.60757152	    -14.11288961	    -12.49269673	    -12.73311137	     57.29554048	     66.05020459	    -13.03008026	    -14.81553483	     -4.74438392	     56.71252205	     67.36027273
